<?xml version="1.0" encoding="utf-8"?>
<!-- Generator: Adobe Illustrator 23.0.3, SVG Export Plug-In . SVG Version: 6.00 Build 0)  -->
<svg version="1.1" id="Layer_1" xmlns="http://www.w3.org/2000/svg" xmlns:xlink="http://www.w3.org/1999/xlink" x="0px" y="0px"
	 viewBox="0 0 1000 1000" style="enable-background:new 0 0 1000 1000;" xml:space="preserve">
<style type="text/css">
	.st0{fill:#4062E4;}
</style>
<g>
	<path class="st0" d="M873.45,356.62c-12.45-7.14-24.92-14.22-37.38-21.34c-0.12,1.05-20.5,179.79-107.99,258.76
		c-24.68,22.28-41.87,34.19-68.23,42.27c-35.96,11.02-66.86,9.82-92.7-3.61c-12.25-6.36-22.73-15.05-31.51-26
		c-21.71,11.57-42.6,22.18-48.99,23.92c0.23,19.78-0.15,40.59-1.16,62.42c-1.18,24.92-4.07,43.28-8.67,55.1
		c-4.6,11.81-12.34,21.17-23.23,28.07c-12.11,7.67-24.23,8.78-36.37,3.33c-12.15-5.45-25.77-18.43-40.9-38.96l-23.25-31.69
		c6.71,31.36,10.59,56.04,11.61,74.05c1.02,18.02-0.55,31.94-4.71,41.77c-4.15,9.85-11.22,17.92-21.21,24.25
		c-12.41,7.86-25.23,9.2-38.47,4.01c-13.25-5.17-27.39-17.63-42.42-37.36c-30.46-40.06-55.75-75.98-75.88-107.75l-10.06-15.89
		c-6.03-10.17-7.71-18.86-5.06-26.05c2.65-7.18,9.12-14.04,19.41-20.56c7.86-4.98,14.79-6.92,20.78-5.84
		c5.98,1.08,11.57,5.71,16.74,13.88c22.04,34.8,52.81,78.7,92.31,131.68c-6.84-56.3-16.48-113.36-28.93-171.18
		c-2.42-11.18-2.3-19.85,0.38-26c2.68-6.14,7.34-11.33,14-15.55c8.17-5.17,14.9-7.1,20.18-5.78c5.29,1.32,10.61,6.21,15.97,14.68
		c22.04,34.8,52.81,78.7,92.31,131.68c1.1-38.42,1.11-68.53,0.03-90.32c-10.09-5.9-18.97-14.9-26.64-27.01
		c-6.51-10.28-10.57-21.7-12.16-34.27c-1.59-12.55-0.38-24.34,3.66-35.39c4.04-11.03,11.04-19.71,21.03-26.04
		c8.77-5.56,17.85-6.95,27.23-4.21c9.38,2.75,17.8,10.03,25.27,21.83c8.62,13.62,14.87,31.5,18.71,53.65
		c5.74-1.11,15.21-4.24,26.02-8.29c-0.12-0.39-0.26-0.77-0.38-1.16c-7.25-23.63-9.03-47.15-5.34-70.57
		c3.68-23.41,12.5-43.81,26.47-61.21c13.96-17.39,32.06-29.5,54.33-36.33c19.85-6.09,37.58-5.07,53.2,3.07
		c15.61,8.14,26.51,22.32,32.7,42.52c7.24,23.63,4.99,46.51-6.76,68.66c-11.75,22.15-36.32,44.38-73.67,66.7
		c13.39,13.13,32.07,16.01,56.04,8.66c15.41-4.73,31.3-15.5,47.69-32.33c11.43-11.74,74.39-74.45,88.73-244.11
		c-48.49-27.64-96.99-55.24-145.48-82.88C528.03,159.69,415.3,95.58,302.74,31.19C266.48,10.44,227.81-0.23,185.69,6.25
		C96.6,19.94,37.04,87.06,36.83,173.46c-0.27,108.9-0.06,217.79-0.07,326.69c0,107.43-0.16,214.86,0.19,322.29
		c0.05,14.55,1,29.45,4.32,43.58c26.24,111.77,155.86,164.26,260.54,104.92c190.98-108.25,381.61-217.05,572.1-326.08
		C993.39,576.48,992.97,425.14,873.45,356.62z"/>
	<path class="st0" d="M621.59,462.05c-1.99-6.5-5.39-11.18-10.2-14.02c-4.8-2.83-10.28-3.31-16.45-1.42
		c-12.68,3.89-21.11,14.53-25.33,31.93c-4.22,17.4-3.12,36.55,3.28,57.44l0.31,1.02c18.73-10.98,32.45-23.05,41.15-36.21
		C623.06,487.63,625.47,474.72,621.59,462.05z"/>
</g>
</svg>
