<svg width="585" height="163" viewBox="0 0 585 163" fill="none" xmlns="http://www.w3.org/2000/svg">
<path d="M581.17 76.7C578.61 70.85 574.78 66.14 569.66 62.54C564.55 58.95 558.39 57.15 551.21 57.15C543.78 57.15 537.08 59.19 531.11 63.27C525.14 67.35 520.42 73.01 516.95 80.26C513.48 87.51 511.74 95.76 511.74 105.01C511.74 106.42 511.81 107.8 511.92 109.16C509.16 112.12 506.12 114.8 502.79 117.2C496.31 121.86 490.35 124.53 484.91 125.2C476.83 126.19 470.93 124.34 467.19 119.66C467.19 119.66 485.3 112.22 493.67 102.67C499.29 96.26 502.64 86.76 501.61 78.42C500.73 71.29 497.92 65.9 493.18 62.25C488.43 58.6 482.56 57.21 475.55 58.07C467.69 59.04 460.91 62.02 455.21 67.01C449.5 72.01 445.34 78.32 442.72 85.94C440.1 93.57 439.3 101.55 440.33 109.89C440.56 111.74 440.87 113.5 441.25 115.2C432.42 119.71 427.18 120.58 424.94 120.64C422.65 120.7 419.26 119.58 417.43 115.79C415.89 112.61 414.66 107.52 414.17 100.31C425.61 80.67 434.74 61.52 441.59 42.87C448.43 24.22 445.2 13.6 440.89 8.08C437.2 3.34 432.9 0.689997 427.56 0.809997C409.12 1.2 395.83 28.08 393.47 52.2C384.27 53.2 375.97 56.4 368.57 61.8C361.17 67.21 355.36 74.17 351.13 82.69C346.9 91.21 344.79 100.44 344.79 110.38C344.79 111.54 344.83 112.66 344.91 113.77C338.54 118.14 331.62 121.23 324.14 123.01C316.37 124.86 309.85 125.07 304.56 123.62C296.34 121.37 291.5 117.14 290.04 110.93C304.83 111.32 315.93 109.4 323.34 105.17C330.75 100.95 335.56 94.78 337.78 86.68C339.68 79.75 339.12 73.7 336.12 68.52C333.11 63.34 328.21 59.82 321.4 57.96C313.76 55.87 306.36 56.05 299.18 58.51C292 60.97 285.76 65.22 280.44 71.28C275.12 77.34 271.35 84.42 269.13 92.53C269.09 92.67 269.06 92.8 269.03 92.94C265.18 92.14 261.9 91.31 260.05 90.58C262.97 83.52 264.44 77.24 264.44 71.76C264.44 67.01 263.34 63.39 261.15 60.89C258.96 58.4 256.09 57.15 252.56 57.15C248.54 57.15 244.95 58.37 241.78 60.8C238.61 63.24 236.12 66.4 234.29 70.3C232.46 74.2 231.55 78.22 231.55 82.36C231.55 87.23 232.46 91.44 234.29 94.97C230.64 101.43 225.16 110.07 217.85 120.91C216.14 98.5 215.29 80.29 215.29 66.29C215.29 62.88 214.65 60.51 213.37 59.17C212.09 57.83 209.81 57.16 206.52 57.16C203.84 57.16 201.56 57.8 199.67 59.08C197.78 60.36 196.17 62.83 194.83 66.48C187.89 85.36 180.27 103.5 171.99 120.92C170.28 98.51 169.43 80.3 169.43 66.3C169.43 63.01 168.67 60.67 167.15 59.27C165.63 57.87 163.28 57.17 160.12 57.17C155.98 57.17 152.87 57.96 150.8 59.54C148.73 61.12 147.63 63.93 147.51 67.94V74.33C147.51 87.12 148.24 102.04 149.7 119.09C150.43 127.49 152.23 133.64 155.09 137.54C157.95 141.44 161.88 143.39 166.87 143.39C170.89 143.39 174.39 142.36 177.37 140.28C180.35 138.21 183.34 134.5 186.32 129.14C189.3 123.78 192.68 115.99 196.46 105.76L197.37 119.1C197.98 127.75 199.53 133.96 202.03 137.73C204.53 141.5 208.21 143.39 213.08 143.39C217.46 143.39 221.39 142.11 224.86 139.55C228.33 136.99 232.5 132.24 237.37 125.3C241.63 119.21 245.53 113.31 249.06 107.58C251.21 108.24 259.15 108.99 267.48 109.62C268.01 114.36 269.44 118.77 271.8 122.82C276.78 131.38 285.44 137.35 297.77 140.72C306.81 143.19 315.91 143.29 325.06 140.99C334.21 138.7 341.68 135.5 347.48 131.4C348.33 130.83 349.1 130.14 349.8 129.34C350.51 130.43 351.27 131.49 352.12 132.48C357.03 138.14 363.28 140.97 370.86 140.97C376.08 140.97 380.65 139.85 384.57 137.61C388.49 135.37 393.06 130.96 398.28 124.37C403.25 135.44 410.46 140.97 419.91 140.97C421.25 140.97 422.59 140.84 423.94 140.62C424.06 140.6 424.17 140.59 424.3 140.57C424.33 140.57 424.35 140.56 424.38 140.56C424.4 140.56 424.41 140.55 424.43 140.55C432.73 139.19 441.02 134.96 447.91 130.42C449.73 132.85 451.85 135 454.29 136.87C462.15 142.9 472.43 145.13 485.12 143.57C494.43 142.42 502.88 139.06 510.47 133.46C513.05 131.56 515.39 129.64 517.53 127.69C519.94 131.78 523.08 135.22 526.97 137.98C532.02 141.57 538.14 143.37 545.33 143.37C552.64 143.37 559.3 141.33 565.33 137.25C571.36 133.17 576.14 127.51 579.67 120.26C583.2 113.02 584.97 104.76 584.97 95.51C585.01 88.82 583.73 82.55 581.17 76.7ZM291.08 96.08C293.04 88.91 296.21 83.22 300.59 78.98C304.97 74.75 309.33 73.23 313.68 74.42C315.79 75 317.28 76.13 318.15 77.82C319.01 79.51 319.14 81.47 318.53 83.7C317.34 88.05 314.3 91.32 309.41 93.51C304.51 95.71 298.38 96.68 291 96.43L291.08 96.08ZM384.52 119.25C382.16 121.18 379.79 122.14 377.43 122.14C371.21 122.14 368.11 117.6 368.11 108.52C368.11 99.94 370.38 92.14 374.92 85.11C379.46 78.09 385.14 73.52 391.98 71.4C391.73 78.11 391.61 82.96 391.61 85.95C391.61 94.28 392.23 101.8 393.47 108.52C389.87 113.75 386.88 117.32 384.52 119.25ZM414.76 46.3C415.88 36.22 419.27 23.75 424.34 23.19C429.94 22.57 432.23 29.95 427.72 42.36C423.21 54.76 414.19 72.8 414.19 72.8C414.19 72.8 413.63 56.45 414.76 46.3ZM464.29 85.41C466.73 79.84 470.19 76.77 474.66 76.22C476.84 75.95 478.64 76.44 480.08 77.67C481.52 78.91 482.38 80.67 482.66 82.97C483.21 87.44 481.64 91.62 477.95 95.51C474.26 99.4 468.95 102.63 462.02 105.2L461.98 104.84C461.08 97.46 461.84 90.99 464.29 85.41ZM557.88 116.89C555.02 121.4 551.51 123.65 547.38 123.65C543.73 123.65 540.68 122.01 538.25 118.72C535.81 115.43 534.6 110.32 534.6 103.37C534.6 94.6 536.03 88 538.89 83.55C541.75 79.11 545.37 76.88 549.76 76.88C553.17 76.88 556.09 78.59 558.53 82C560.96 85.41 562.18 90.47 562.18 97.16C562.17 105.81 560.74 112.38 557.88 116.89Z" fill="#4062E4"/>
<path d="M111 78.37C109.36 77.43 107.72 76.5 106.08 75.56C106.06 75.7 103.38 99.22 91.87 109.61C88.62 112.54 86.36 114.11 82.89 115.17C78.16 116.62 74.09 116.46 70.69 114.7C69.08 113.86 67.7 112.72 66.54 111.28C63.68 112.8 60.93 114.2 60.09 114.43C60.12 117.03 60.07 119.77 59.94 122.64C59.78 125.92 59.4 128.34 58.8 129.89C58.19 131.44 57.18 132.68 55.74 133.58C54.15 134.59 52.55 134.74 50.95 134.02C49.35 133.3 47.56 131.59 45.57 128.89L42.51 124.72C43.39 128.85 43.9 132.1 44.04 134.46C44.17 136.83 43.97 138.66 43.42 139.96C42.87 141.26 41.94 142.32 40.63 143.15C39 144.18 37.31 144.36 35.57 143.68C33.83 143 31.97 141.36 29.99 138.76C25.98 133.49 22.65 128.76 20 124.58L18.68 122.49C17.89 121.15 17.67 120.01 18.01 119.06C18.36 118.11 19.21 117.21 20.56 116.35C21.59 115.69 22.51 115.44 23.29 115.58C24.08 115.72 24.81 116.33 25.49 117.41C28.39 121.99 32.44 127.77 37.64 134.74C36.74 127.33 35.47 119.82 33.83 112.21C33.51 110.74 33.53 109.6 33.88 108.79C34.23 107.98 34.85 107.3 35.72 106.74C36.8 106.06 37.68 105.81 38.38 105.98C39.08 106.15 39.78 106.8 40.48 107.91C43.38 112.49 47.43 118.27 52.63 125.24C52.77 120.18 52.78 116.22 52.63 113.35C51.3 112.57 50.13 111.39 49.12 109.8C48.26 108.45 47.73 106.94 47.52 105.29C47.31 103.64 47.47 102.09 48 100.63C48.53 99.18 49.45 98.04 50.77 97.2C51.92 96.47 53.12 96.28 54.35 96.65C55.58 97.01 56.69 97.97 57.68 99.52C58.82 101.31 59.64 103.67 60.14 106.58C60.9 106.43 62.14 106.02 63.56 105.49C63.54 105.44 63.53 105.39 63.51 105.34C62.56 102.23 62.32 99.14 62.81 96.05C63.29 92.97 64.46 90.28 66.29 87.99C68.13 85.7 70.51 84.11 73.44 83.21C76.05 82.41 78.39 82.54 80.44 83.61C82.49 84.68 83.93 86.55 84.74 89.21C85.69 92.32 85.4 95.33 83.85 98.25C82.3 101.16 79.07 104.09 74.15 107.03C75.91 108.76 78.37 109.14 81.52 108.17C83.55 107.55 85.64 106.13 87.8 103.92C89.3 102.38 97.59 94.12 99.48 71.8C93.1 68.16 86.72 64.53 80.33 60.89C65.5 52.44 50.67 44 35.86 35.53C31.09 32.8 26 31.4 20.46 32.25C8.74001 34.05 0.899998 42.88 0.869998 54.26C0.839998 68.59 0.860004 82.92 0.860004 97.25C0.860004 111.39 0.840008 125.53 0.880008 139.66C0.890008 141.57 1.01 143.54 1.45 145.4C4.9 160.11 21.96 167.02 35.74 159.21C60.87 144.96 85.96 130.65 111.03 116.3C126.79 107.3 126.73 87.39 111 78.37Z" fill="#4062E4"/>
<path d="M77.86 92.24C77.6 91.38 77.15 90.77 76.52 90.4C75.89 90.03 75.17 89.96 74.36 90.21C72.69 90.72 71.58 92.12 71.03 94.41C70.47 96.7 70.62 99.22 71.46 101.97L71.5 102.1C73.96 100.65 75.77 99.07 76.92 97.33C78.05 95.61 78.37 93.91 77.86 92.24Z" fill="#4062E4"/>
</svg>
