<svg width="927" height="992" viewBox="0 0 927 992" fill="none" xmlns="http://www.w3.org/2000/svg">
<path d="M836.758 352.257C824.308 345.117 811.838 338.037 799.378 330.917C799.258 331.967 778.878 510.707 691.388 589.677C666.708 611.957 649.518 623.867 623.158 631.947C587.198 642.967 556.298 641.767 530.458 628.337C518.208 621.977 507.728 613.287 498.948 602.337C477.238 613.907 456.348 624.517 449.958 626.257C450.188 646.037 449.808 666.847 448.798 688.677C447.618 713.597 444.728 731.957 440.128 743.777C435.528 755.587 427.788 764.947 416.898 771.847C404.788 779.517 392.668 780.627 380.528 775.177C368.378 769.727 354.758 756.747 339.628 736.217L316.378 704.527C323.088 735.887 326.968 760.567 327.988 778.577C329.008 796.597 327.438 810.517 323.278 820.347C319.128 830.197 312.058 838.267 302.068 844.597C289.658 852.457 276.838 853.797 263.598 848.607C250.348 843.437 236.208 830.977 221.178 811.247C190.718 771.187 165.428 735.267 145.298 703.497L135.238 687.607C129.208 677.437 127.528 668.747 130.178 661.557C132.828 654.377 139.298 647.517 149.588 640.997C157.448 636.017 164.378 634.077 170.368 635.157C176.348 636.237 181.938 640.867 187.108 649.037C209.148 683.837 239.918 727.737 279.418 780.717C272.578 724.417 262.938 667.357 250.488 609.537C248.068 598.357 248.188 589.687 250.868 583.537C253.548 577.397 258.208 572.207 264.868 567.987C273.038 562.817 279.768 560.887 285.048 562.207C290.338 563.527 295.658 568.417 301.018 576.887C323.058 611.687 353.828 655.587 393.328 708.567C394.428 670.147 394.438 640.037 393.358 618.247C383.268 612.347 374.388 603.347 366.718 591.237C360.208 580.957 356.148 569.537 354.558 556.967C352.968 544.417 354.178 532.627 358.218 521.577C362.258 510.547 369.258 501.867 379.248 495.537C388.018 489.977 397.098 488.587 406.478 491.327C415.858 494.077 424.278 501.357 431.748 513.157C440.368 526.777 446.618 544.657 450.458 566.807C456.198 565.697 465.668 562.567 476.478 558.517C476.358 558.127 476.218 557.747 476.098 557.357C468.848 533.727 467.068 510.207 470.758 486.787C474.438 463.377 483.258 442.977 497.228 425.577C511.188 408.187 529.288 396.077 551.558 389.247C571.408 383.157 589.138 384.177 604.758 392.317C620.368 400.457 631.268 414.637 637.458 434.837C644.698 458.467 642.448 481.347 630.698 503.497C618.948 525.647 594.378 547.877 557.028 570.197C570.418 583.327 589.098 586.207 613.068 578.857C628.478 574.127 644.368 563.357 660.758 546.527C672.188 534.787 735.148 472.077 749.488 302.417C700.998 274.777 652.498 247.177 604.008 219.537C491.338 155.327 378.608 91.217 266.048 26.827C229.788 6.07701 191.118 -4.59299 148.998 1.88701C59.9084 15.577 0.348416 82.697 0.138416 169.097C-0.131584 277.997 0.0784126 386.887 0.0684126 495.787C0.0684126 603.217 -0.0915849 710.647 0.258415 818.077C0.308415 832.627 1.25841 847.527 4.57841 861.657C30.8184 973.427 160.438 1025.92 265.118 966.577C456.098 858.327 646.728 749.527 837.218 640.497C956.698 572.117 956.278 420.777 836.758 352.257Z" fill="#808080"/>
<path d="M584.898 457.687C582.908 451.187 579.508 446.507 574.698 443.667C569.898 440.837 564.418 440.357 558.248 442.247C545.568 446.137 537.138 456.777 532.918 474.177C528.698 491.577 529.798 510.727 536.198 531.617L536.508 532.637C555.238 521.657 568.958 509.587 577.658 496.427C586.368 483.267 588.778 470.357 584.898 457.687Z" fill="#808080"/>
</svg>
