<?xml version="1.0" encoding="utf-8"?>
<!-- Generator: Adobe Illustrator 23.0.3, SVG Export Plug-In . SVG Version: 6.00 Build 0)  -->
<svg version="1.1" id="Layer_1" xmlns="http://www.w3.org/2000/svg" xmlns:xlink="http://www.w3.org/1999/xlink" x="0px" y="0px"
	 viewBox="0 0 841.89 595.28" style="enable-background:new 0 0 841.89 595.28;" xml:space="preserve">
<style type="text/css">
	.st0{fill:#4062E4;}
</style>
<g>
	<g>
		<path class="st0" d="M611.57,274.42c-2.27-5.19-5.67-9.37-10.21-12.56c-4.54-3.19-9.99-4.78-16.37-4.78
			c-6.59,0-12.53,1.81-17.82,5.43c-5.29,3.62-9.48,8.64-12.56,15.07c-3.08,6.43-4.62,13.75-4.62,21.96c0,1.25,0.06,2.47,0.16,3.69
			c-2.45,2.62-5.14,5-8.1,7.13c-5.75,4.14-11.04,6.5-15.86,7.09c-7.16,0.88-12.4-0.76-15.72-4.91c0,0,16.07-6.6,23.49-15.07
			c4.98-5.69,7.95-14.11,7.04-21.51c-0.78-6.32-3.27-11.11-7.48-14.35c-4.21-3.24-9.42-4.47-15.64-3.71
			c-6.97,0.86-12.99,3.5-18.04,7.93c-5.06,4.43-8.75,10.03-11.08,16.79c-2.33,6.76-3.03,13.84-2.12,21.24
			c0.2,1.64,0.48,3.2,0.82,4.71c-7.84,4-12.48,4.77-14.46,4.83c-2.03,0.06-5.03-0.94-6.66-4.3c-1.36-2.82-2.46-7.33-2.89-13.73
			c10.15-17.42,18.25-34.41,24.32-50.95c6.06-16.54,3.2-25.96-0.62-30.86c-3.28-4.2-7.09-6.55-11.83-6.45
			c-16.35,0.35-28.14,24.19-30.24,45.58c-8.16,0.88-15.52,3.72-22.08,8.52c-6.56,4.8-11.72,10.98-15.47,18.53
			c-3.75,7.56-5.62,15.74-5.62,24.56c0,1.03,0.04,2.03,0.11,3c-5.65,3.88-11.79,6.62-18.42,8.2c-6.89,1.64-12.68,1.82-17.37,0.54
			c-7.29-2-11.59-5.75-12.88-11.25c13.12,0.34,22.97-1.36,29.54-5.11s10.84-9.21,12.8-16.4c1.68-6.15,1.19-11.52-1.47-16.11
			c-2.67-4.59-7.02-7.72-13.06-9.37c-6.78-1.85-13.34-1.69-19.71,0.49c-6.37,2.18-11.91,5.96-16.62,11.33
			c-4.72,5.37-8.06,11.65-10.03,18.84c-0.03,0.12-0.06,0.24-0.09,0.36c-3.41-0.71-6.33-1.44-7.97-2.09
			c2.59-6.26,3.89-11.83,3.89-16.69c0-4.21-0.97-7.43-2.92-9.64c-1.94-2.21-4.48-3.32-7.62-3.32c-3.57,0-6.75,1.08-9.56,3.24
			c-2.81,2.16-5.02,4.97-6.64,8.43c-1.62,3.46-2.43,7.02-2.43,10.69c0,4.32,0.81,8.05,2.43,11.18c-3.24,5.73-8.1,13.4-14.58,23.01
			c-1.51-19.88-2.27-36.03-2.27-48.45c0-3.02-0.57-5.13-1.7-6.32c-1.13-1.19-3.16-1.78-6.08-1.78c-2.38,0-4.4,0.57-6.08,1.7
			c-1.68,1.13-3.11,3.32-4.29,6.56c-6.16,16.74-12.91,32.84-20.25,48.29c-1.51-19.88-2.27-36.03-2.27-48.45c0-2.92-0.68-5-2.03-6.24
			c-1.35-1.24-3.43-1.86-6.24-1.86c-3.67,0-6.43,0.7-8.26,2.11c-1.84,1.41-2.81,3.89-2.92,7.45v5.67c0,11.34,0.65,24.58,1.94,39.7
			c0.65,7.45,2.24,12.91,4.78,16.37c2.54,3.46,6.02,5.19,10.45,5.19c3.57,0,6.67-0.92,9.32-2.76c2.65-1.84,5.29-5.13,7.94-9.88
			c2.65-4.75,5.64-11.67,8.99-20.74l0.81,11.83c0.54,7.67,1.92,13.18,4.13,16.53c2.21,3.35,5.48,5.02,9.8,5.02
			c3.89,0,7.37-1.13,10.45-3.4c3.08-2.27,6.78-6.48,11.1-12.64c3.78-5.4,7.24-10.64,10.37-15.72c1.91,0.59,8.95,1.25,16.34,1.81
			c0.47,4.21,1.74,8.11,3.83,11.71c4.42,7.59,12.1,12.89,23.04,15.88c8.02,2.2,16.09,2.28,24.21,0.24
			c8.12-2.03,14.74-4.87,19.88-8.5c0.75-0.5,1.43-1.12,2.06-1.82c0.63,0.97,1.3,1.91,2.06,2.79c4.36,5.02,9.9,7.53,16.62,7.53
			c4.63,0,8.68-0.99,12.16-2.98c3.47-1.99,7.53-5.9,12.16-11.75c4.41,9.82,10.81,14.72,19.19,14.72c1.19,0,2.38-0.11,3.57-0.31
			c0.11-0.02,0.2-0.02,0.32-0.04c0.02,0,0.05-0.01,0.07-0.01c0.01,0,0.03-0.01,0.04-0.01c7.36-1.2,14.71-4.96,20.83-8.98l0,0l0,0
			c1.61,2.16,3.5,4.07,5.66,5.72c6.97,5.35,16.09,7.33,27.34,5.94c8.25-1.02,15.75-4,22.49-8.97c2.29-1.69,4.36-3.39,6.26-5.12
			c2.14,3.63,4.92,6.68,8.37,9.13c4.48,3.19,9.91,4.78,16.28,4.78c6.48,0,12.39-1.81,17.74-5.43c5.35-3.62,9.58-8.64,12.72-15.07
			c3.13-6.42,4.7-13.74,4.7-21.96C614.97,285.17,613.83,279.6,611.57,274.42z M354.26,291.61c1.74-6.36,4.55-11.41,8.43-15.16
			c3.88-3.75,7.75-5.1,11.61-4.05c1.88,0.51,3.2,1.52,3.96,3.02c0.77,1.5,0.88,3.24,0.34,5.22c-1.05,3.86-3.75,6.76-8.09,8.71
			c-4.34,1.95-9.79,2.81-16.33,2.59L354.26,291.61z M437.14,312.16c-2.1,1.71-4.19,2.57-6.29,2.57c-5.52,0-8.27-4.03-8.27-12.08
			c0-7.61,2.01-14.53,6.04-20.76c4.02-6.23,9.07-10.28,15.14-12.16c-0.22,5.95-0.33,10.26-0.33,12.9c0,7.39,0.55,14.06,1.65,20.02
			C441.88,307.28,439.23,310.45,437.14,312.16z M463.96,247.46c0.99-8.94,4-20,8.5-20.5c4.97-0.55,7,6,3,17s-12,27-12,27
			S462.96,256.46,463.96,247.46z M507.89,282.14c2.17-4.94,5.23-7.66,9.2-8.15c1.93-0.24,3.53,0.19,4.81,1.28
			c1.28,1.1,2.04,2.66,2.29,4.7c0.49,3.97-0.91,7.68-4.18,11.13c-3.28,3.45-7.99,6.32-14.13,8.59l-0.04-0.32
			C505.04,292.84,505.72,287.09,507.89,282.14z M590.91,310.07c-2.54,4-5.65,6-9.32,6c-3.24,0-5.94-1.46-8.1-4.38
			c-2.16-2.92-3.24-7.45-3.24-13.61c0-7.78,1.27-13.64,3.81-17.58c2.54-3.94,5.75-5.91,9.64-5.91c3.02,0,5.62,1.51,7.78,4.54
			c2.16,3.03,3.24,7.51,3.24,13.45C594.71,300.24,593.44,306.07,590.91,310.07z"/>
	</g>
</g>
</svg>
